STARTFONT 2.1
FONT -Monotype-Century Gothic-Regular-R-Normal--18-180-75-75-P-82-iso8859-9
SIZE 18 75 75
FONTBOUNDINGBOX 25 22 -3 -4

STARTPROPERTIES 24
FOUNDRY "Monotype"
FAMILY_NAME "Century Gothic"
WEIGHT_NAME "Regular"
SLANT "R"
SETWIDTH_NAME "Normal"
ADD_STYLE_NAME ""
PIXEL_SIZE 18
POINT_SIZE 180
RESOLUTION_X 75
RESOLUTION_Y 75
SPACING "P"
AVERAGE_WIDTH 82
CHARSET_REGISTRY "iso8859"
CHARSET_ENCODING "9"
FACE_NAME "Century Gothic ISO Latin5"
_DEC_DEVICE_FONTNAMES "PS=centurygothic-lat5"
COPYRIGHT "Copyright (c) 1994 Monotype Typography Ltd."
CAP_HEIGHT 16
X_HEIGHT 12
WEIGHT 10
QUAD_WIDTH 13
DEFAULT_CHAR 160
FONT_DESCENT 4
FONT_ASCENT 19
ENDPROPERTIES

CHARS 191

STARTCHAR space
ENCODING 32
SWIDTH 277 0
DWIDTH 5 0
BBX 0 0 0 0
BITMAP
ENDCHAR

STARTCHAR exclam
ENCODING 33
SWIDTH 295 0
DWIDTH 6 0
BBX 1 14 2 0
BITMAP
80
80
80
80
80
80
80
80
80
80
80
00
80
80
ENDCHAR

STARTCHAR quotedbl
ENCODING 34
SWIDTH 309 0
DWIDTH 6 0
BBX 6 4 0 10
BITMAP
CC
CC
CC
CC
ENDCHAR

STARTCHAR numbersign
ENCODING 35
SWIDTH 720 0
DWIDTH 14 0
BBX 11 15 2 0
BITMAP
0880
0880
0880
0880
0880
7FE0
1100
1100
1100
FFC0
2200
2200
2200
2200
2200
ENDCHAR

STARTCHAR dollar
ENCODING 36
SWIDTH 554 0
DWIDTH 11 0
BBX 7 18 2 -3
BITMAP
10
38
54
92
90
D0
70
38
1C
16
12
12
92
54
38
10
10
10
ENDCHAR

STARTCHAR percent
ENCODING 37
SWIDTH 775 0
DWIDTH 15 0
BBX 13 15 1 -1
BITMAP
30F0
CF20
8440
8480
CD00
7900
0200
0400
0460
0998
1108
1108
2198
40F0
8000
ENDCHAR

STARTCHAR ampersand
ENCODING 38
SWIDTH 757 0
DWIDTH 14 0
BBX 12 13 1 0
BITMAP
3C00
4200
4200
4200
2400
1800
3400
4200
8120
8140
8180
8240
7C30
ENDCHAR

STARTCHAR quoteright
ENCODING 39
SWIDTH 351 0
DWIDTH 7 0
BBX 2 4 3 10
BITMAP
C0
C0
40
80
ENDCHAR

STARTCHAR parenleft
ENCODING 40
SWIDTH 369 0
DWIDTH 7 0
BBX 3 19 2 -4
BITMAP
20
20
40
40
80
80
80
80
80
80
80
80
80
80
80
40
40
20
20
ENDCHAR

STARTCHAR parenright
ENCODING 41
SWIDTH 369 0
DWIDTH 7 0
BBX 3 19 2 -4
BITMAP
80
80
40
40
20
20
20
20
20
20
20
20
20
20
20
40
40
80
80
ENDCHAR

STARTCHAR asterisk
ENCODING 42
SWIDTH 425 0
DWIDTH 8 0
BBX 6 7 1 7
BITMAP
20
A4
EC
30
DC
94
10
ENDCHAR

STARTCHAR plus
ENCODING 43
SWIDTH 606 0
DWIDTH 12 0
BBX 9 9 2 2
BITMAP
0800
0800
0800
0800
FF80
0800
0800
0800
0800
ENDCHAR

STARTCHAR comma
ENCODING 44
SWIDTH 277 0
DWIDTH 5 0
BBX 3 4 1 -2
BITMAP
60
40
80
80
ENDCHAR

STARTCHAR minus
ENCODING 45
SWIDTH 606 0
DWIDTH 12 0
BBX 9 1 2 6
BITMAP
FF80
ENDCHAR

STARTCHAR period
ENCODING 46
SWIDTH 277 0
DWIDTH 5 0
BBX 1 2 2 0
BITMAP
80
80
ENDCHAR

STARTCHAR slash
ENCODING 47
SWIDTH 437 0
DWIDTH 8 0
BBX 7 16 1 -2
BITMAP
02
02
04
04
08
08
10
10
10
20
20
20
40
40
80
80
ENDCHAR

STARTCHAR zero
ENCODING 48
SWIDTH 554 0
DWIDTH 11 0
BBX 9 14 1 0
BITMAP
3E00
4100
4100
8080
8080
8080
8080
8080
8080
8080
8080
4100
4100
3E00
ENDCHAR

STARTCHAR one
ENCODING 49
SWIDTH 554 0
DWIDTH 11 0
BBX 3 14 3 0
BITMAP
E0
20
20
20
20
20
20
20
20
20
20
20
20
20
ENDCHAR

STARTCHAR two
ENCODING 50
SWIDTH 554 0
DWIDTH 11 0
BBX 8 14 2 0
BITMAP
3C
42
81
81
01
01
02
04
08
10
20
40
80
FF
ENDCHAR

STARTCHAR three
ENCODING 51
SWIDTH 554 0
DWIDTH 11 0
BBX 9 14 1 0
BITMAP
1C00
2200
4100
4100
0100
0200
0E00
0100
0080
0080
8080
8100
6300
3C00
ENDCHAR

STARTCHAR four
ENCODING 52
SWIDTH 554 0
DWIDTH 11 0
BBX 10 14 1 0
BITMAP
0100
0300
0300
0500
0D00
0900
1100
3100
2100
4100
FFC0
0100
0100
0100
ENDCHAR

STARTCHAR five
ENCODING 53
SWIDTH 554 0
DWIDTH 11 0
BBX 9 14 1 0
BITMAP
1F80
1000
1000
2000
2000
3C00
2300
0100
0080
0080
8080
4100
6300
1C00
ENDCHAR

STARTCHAR six
ENCODING 54
SWIDTH 554 0
DWIDTH 11 0
BBX 8 14 2 0
BITMAP
08
10
10
20
20
40
7C
C2
81
81
81
42
66
18
ENDCHAR

STARTCHAR seven
ENCODING 55
SWIDTH 554 0
DWIDTH 11 0
BBX 9 14 1 0
BITMAP
FF80
0100
0100
0200
0200
0400
0800
0800
1000
1000
2000
2000
4000
4000
ENDCHAR

STARTCHAR eight
ENCODING 56
SWIDTH 554 0
DWIDTH 11 0
BBX 9 14 1 0
BITMAP
1C00
2200
4100
4100
4100
2200
3E00
4100
8080
8080
8080
8080
4100
3E00
ENDCHAR

STARTCHAR nine
ENCODING 57
SWIDTH 554 0
DWIDTH 11 0
BBX 8 14 2 0
BITMAP
18
66
42
81
81
81
43
3E
02
04
04
08
08
10
ENDCHAR

STARTCHAR colon
ENCODING 58
SWIDTH 277 0
DWIDTH 5 0
BBX 1 10 2 0
BITMAP
80
80
00
00
00
00
00
00
80
80
ENDCHAR

STARTCHAR semicolon
ENCODING 59
SWIDTH 277 0
DWIDTH 5 0
BBX 3 12 1 -2
BITMAP
20
20
00
00
00
00
00
00
60
40
80
80
ENDCHAR

STARTCHAR less
ENCODING 60
SWIDTH 606 0
DWIDTH 12 0
BBX 10 10 1 2
BITMAP
00C0
0300
0C00
3000
C000
C000
3000
0C00
0300
00C0
ENDCHAR

STARTCHAR equal
ENCODING 61
SWIDTH 606 0
DWIDTH 12 0
BBX 9 5 2 4
BITMAP
FF80
0000
0000
0000
FF80
ENDCHAR

STARTCHAR greater
ENCODING 62
SWIDTH 606 0
DWIDTH 12 0
BBX 10 10 1 2
BITMAP
C000
3000
0C00
0300
00C0
00C0
0300
0C00
3000
C000
ENDCHAR

STARTCHAR question
ENCODING 63
SWIDTH 591 0
DWIDTH 11 0
BBX 8 14 2 0
BITMAP
3C
42
81
81
02
0C
30
40
41
42
3C
00
10
10
ENDCHAR

STARTCHAR at
ENCODING 64
SWIDTH 867 0
DWIDTH 16 0
BBX 14 15 1 0
BITMAP
0780
1860
2010
4008
43A8
8C64
8824
9024
9044
9048
48D0
4760
2008
1810
07E0
ENDCHAR

STARTCHAR A
ENCODING 65
SWIDTH 740 0
DWIDTH 14 0
BBX 12 14 1 0
BITMAP
0600
0600
0900
0900
1080
1080
2040
2040
3FC0
4020
4020
4020
8010
8010
ENDCHAR

STARTCHAR B
ENCODING 66
SWIDTH 574 0
DWIDTH 11 0
BBX 8 14 2 0
BITMAP
FC
82
82
82
82
84
FC
82
81
81
81
81
82
FC
ENDCHAR

STARTCHAR C
ENCODING 67
SWIDTH 813 0
DWIDTH 15 0
BBX 12 14 2 0
BITMAP
0F80
3060
4030
4000
8000
8000
8000
8000
8000
8000
4000
4030
3060
0F80
ENDCHAR

STARTCHAR D
ENCODING 68
SWIDTH 744 0
DWIDTH 14 0
BBX 11 14 2 0
BITMAP
FE00
8180
8040
8040
8020
8020
8020
8020
8020
8020
8040
8040
8180
FE00
ENDCHAR

STARTCHAR E
ENCODING 69
SWIDTH 536 0
DWIDTH 10 0
BBX 7 14 2 0
BITMAP
FE
80
80
80
80
80
FE
80
80
80
80
80
80
FE
ENDCHAR

STARTCHAR F
ENCODING 70
SWIDTH 485 0
DWIDTH 9 0
BBX 7 14 2 0
BITMAP
FE
80
80
80
80
80
FE
80
80
80
80
80
80
80
ENDCHAR

STARTCHAR G
ENCODING 71
SWIDTH 872 0
DWIDTH 17 0
BBX 14 14 2 0
BITMAP
0FC0
3030
4018
4000
8000
8000
8000
807C
8004
8004
4008
4008
3030
0FC0
ENDCHAR

STARTCHAR H
ENCODING 72
SWIDTH 683 0
DWIDTH 13 0
BBX 9 14 2 0
BITMAP
8080
8080
8080
8080
8080
8080
FF80
8080
8080
8080
8080
8080
8080
8080
ENDCHAR

STARTCHAR I
ENCODING 73
SWIDTH 226 0
DWIDTH 5 0
BBX 1 14 2 0
BITMAP
80
80
80
80
80
80
80
80
80
80
80
80
80
80
ENDCHAR

STARTCHAR J
ENCODING 74
SWIDTH 482 0
DWIDTH 9 0
BBX 6 14 1 0
BITMAP
04
04
04
04
04
04
04
04
04
04
04
04
84
78
ENDCHAR

STARTCHAR K
ENCODING 75
SWIDTH 591 0
DWIDTH 11 0
BBX 9 14 2 0
BITMAP
8100
8200
8400
8800
9000
E000
C000
A000
9000
8800
8400
8200
8100
8080
ENDCHAR

STARTCHAR L
ENCODING 76
SWIDTH 462 0
DWIDTH 9 0
BBX 6 14 2 0
BITMAP
80
80
80
80
80
80
80
80
80
80
80
80
80
FC
ENDCHAR

STARTCHAR M
ENCODING 77
SWIDTH 919 0
DWIDTH 17 0
BBX 15 14 1 0
BITMAP
2008
2008
2008
5014
5014
4824
4824
4444
4444
8442
8282
8282
8102
8102
ENDCHAR

STARTCHAR N
ENCODING 78
SWIDTH 740 0
DWIDTH 14 0
BBX 10 14 2 0
BITMAP
8040
C040
E040
A040
9040
9040
8840
8440
8440
8240
8140
81C0
80C0
8040
ENDCHAR

STARTCHAR O
ENCODING 79
SWIDTH 869 0
DWIDTH 17 0
BBX 14 14 2 0
BITMAP
0FC0
3030
4008
4008
8004
8004
8004
8004
8004
8004
4008
4008
3030
0FC0
ENDCHAR

STARTCHAR P
ENCODING 80
SWIDTH 592 0
DWIDTH 11 0
BBX 8 14 2 0
BITMAP
FC
82
81
81
81
82
FC
80
80
80
80
80
80
80
ENDCHAR

STARTCHAR Q
ENCODING 81
SWIDTH 871 0
DWIDTH 17 0
BBX 14 15 2 -1
BITMAP
0FC0
3030
4008
4008
8004
8004
8004
8004
8104
8084
4048
4028
3030
0FC8
0004
ENDCHAR

STARTCHAR R
ENCODING 82
SWIDTH 607 0
DWIDTH 12 0
BBX 9 14 2 0
BITMAP
FC00
8200
8100
8100
8100
8200
FC00
A000
9000
8800
8400
8200
8100
8080
ENDCHAR

STARTCHAR S
ENCODING 83
SWIDTH 498 0
DWIDTH 9 0
BBX 7 14 1 0
BITMAP
38
44
82
80
80
60
18
04
02
02
02
82
44
38
ENDCHAR

STARTCHAR T
ENCODING 84
SWIDTH 426 0
DWIDTH 8 0
BBX 7 14 1 0
BITMAP
FE
10
10
10
10
10
10
10
10
10
10
10
10
10
ENDCHAR

STARTCHAR U
ENCODING 85
SWIDTH 655 0
DWIDTH 13 0
BBX 9 14 2 0
BITMAP
8080
8080
8080
8080
8080
8080
8080
8080
8080
8080
8080
4100
6300
1C00
ENDCHAR

STARTCHAR V
ENCODING 86
SWIDTH 702 0
DWIDTH 13 0
BBX 11 14 1 0
BITMAP
8020
8020
4040
4040
4040
2080
2080
2080
1100
1100
0A00
0A00
0400
0400
ENDCHAR

STARTCHAR W
ENCODING 87
SWIDTH 960 0
DWIDTH 19 0
BBX 17 14 1 0
BITMAP
808080
808080
808080
414100
414100
422100
422100
241200
241200
241200
280A00
180C00
100400
100400
ENDCHAR

STARTCHAR X
ENCODING 88
SWIDTH 609 0
DWIDTH 10 0
BBX 8 14 1 0
BITMAP
81
81
42
42
24
24
18
18
24
24
42
42
81
81
ENDCHAR

STARTCHAR Y
ENCODING 89
SWIDTH 592 0
DWIDTH 11 0
BBX 9 14 1 0
BITMAP
8080
8080
4100
4100
2200
2200
1400
0800
0800
0800
0800
0800
0800
0800
ENDCHAR

STARTCHAR Z
ENCODING 90
SWIDTH 480 0
DWIDTH 9 0
BBX 7 14 1 0
BITMAP
FE
02
04
04
08
08
10
10
20
20
40
40
80
FE
ENDCHAR

STARTCHAR bracketleft
ENCODING 91
SWIDTH 351 0
DWIDTH 7 0
BBX 3 18 3 -4
BITMAP
E0
80
80
80
80
80
80
80
80
80
80
80
80
80
80
80
80
E0
ENDCHAR

STARTCHAR backslash
ENCODING 92
SWIDTH 605 0
DWIDTH 11 0
BBX 10 16 1 -2
BITMAP
8000
8000
4000
4000
2000
1000
1000
0800
0400
0400
0200
0100
0100
0080
0040
0040
ENDCHAR

STARTCHAR bracketright
ENCODING 93
SWIDTH 351 0
DWIDTH 7 0
BBX 3 18 2 -4
BITMAP
E0
20
20
20
20
20
20
20
20
20
20
20
20
20
20
20
20
E0
ENDCHAR

STARTCHAR asciicircum
ENCODING 94
SWIDTH 672 0
DWIDTH 13 0
BBX 11 11 1 3
BITMAP
0400
0400
0A00
0A00
1100
1100
2080
2080
4040
4040
8020
ENDCHAR

STARTCHAR underscore
ENCODING 95
SWIDTH 500 0
DWIDTH 10 0
BBX 10 1 0 -2
BITMAP
FFC0
ENDCHAR

STARTCHAR quoteleft
ENCODING 96
SWIDTH 351 0
DWIDTH 7 0
BBX 2 4 2 11
BITMAP
40
80
C0
C0
ENDCHAR

STARTCHAR a
ENCODING 97
SWIDTH 683 0
DWIDTH 13 0
BBX 10 10 1 0
BITMAP
1E40
6140
40C0
8040
8040
8040
8040
40C0
6140
1E40
ENDCHAR

STARTCHAR b
ENCODING 98
SWIDTH 682 0
DWIDTH 13 0
BBX 10 14 2 0
BITMAP
8000
8000
8000
8000
9E00
A180
C080
8040
8040
8040
8040
C080
A180
9E00
ENDCHAR

STARTCHAR c
ENCODING 99
SWIDTH 647 0
DWIDTH 12 0
BBX 10 10 1 0
BITMAP
1F00
60C0
4040
8000
8000
8000
8000
4040
60C0
1F00
ENDCHAR

STARTCHAR d
ENCODING 100
SWIDTH 685 0
DWIDTH 13 0
BBX 10 14 1 0
BITMAP
0040
0040
0040
0040
1E40
6140
40C0
8040
8040
8040
8040
40C0
6140
1E40
ENDCHAR

STARTCHAR e
ENCODING 101
SWIDTH 650 0
DWIDTH 12 0
BBX 10 10 1 0
BITMAP
1E00
6180
4080
8040
FFC0
8000
8000
4040
60C0
1F00
ENDCHAR

STARTCHAR f
ENCODING 102
SWIDTH 314 0
DWIDTH 5 0
BBX 4 14 1 0
BITMAP
30
40
40
40
F0
40
40
40
40
40
40
40
40
40
ENDCHAR

STARTCHAR g
ENCODING 103
SWIDTH 673 0
DWIDTH 13 0
BBX 10 14 1 -4
BITMAP
1E40
6140
40C0
8040
8040
8040
8040
40C0
6140
1E40
0040
4080
6180
1E00
ENDCHAR

STARTCHAR h
ENCODING 104
SWIDTH 610 0
DWIDTH 12 0
BBX 8 14 2 0
BITMAP
80
80
80
80
9C
A2
C1
81
81
81
81
81
81
81
ENDCHAR

STARTCHAR i
ENCODING 105
SWIDTH 200 0
DWIDTH 5 0
BBX 1 14 2 0
BITMAP
80
80
00
00
80
80
80
80
80
80
80
80
80
80
ENDCHAR

STARTCHAR j
ENCODING 106
SWIDTH 203 0
DWIDTH 5 0
BBX 3 18 0 -4
BITMAP
20
20
00
00
20
20
20
20
20
20
20
20
20
20
20
20
20
C0
ENDCHAR

STARTCHAR k
ENCODING 107
SWIDTH 502 0
DWIDTH 10 0
BBX 8 14 2 0
BITMAP
80
80
80
80
83
84
88
B0
E0
90
88
84
82
81
ENDCHAR

STARTCHAR l
ENCODING 108
SWIDTH 200 0
DWIDTH 5 0
BBX 1 14 2 0
BITMAP
80
80
80
80
80
80
80
80
80
80
80
80
80
80
ENDCHAR

STARTCHAR m
ENCODING 109
SWIDTH 938 0
DWIDTH 17 0
BBX 13 10 2 0
BITMAP
BCE0
C710
8208
8208
8208
8208
8208
8208
8208
8208
ENDCHAR

STARTCHAR n
ENCODING 110
SWIDTH 610 0
DWIDTH 12 0
BBX 8 10 2 0
BITMAP
9C
A2
C1
81
81
81
81
81
81
81
ENDCHAR

STARTCHAR o
ENCODING 111
SWIDTH 655 0
DWIDTH 12 0
BBX 10 10 1 0
BITMAP
1E00
6180
4080
8040
8040
8040
8040
4080
6180
1E00
ENDCHAR

STARTCHAR p
ENCODING 112
SWIDTH 682 0
DWIDTH 13 0
BBX 10 14 2 -4
BITMAP
9E00
A180
C080
8040
8040
8040
8040
C080
A180
9E00
8000
8000
8000
8000
ENDCHAR

STARTCHAR q
ENCODING 113
SWIDTH 682 0
DWIDTH 13 0
BBX 10 14 1 -4
BITMAP
1E40
6140
40C0
8040
8040
8040
8040
40C0
6140
1E40
0040
0040
0040
0040
ENDCHAR

STARTCHAR r
ENCODING 114
SWIDTH 301 0
DWIDTH 7 0
BBX 5 10 2 0
BITMAP
B8
C0
80
80
80
80
80
80
80
80
ENDCHAR

STARTCHAR s
ENCODING 115
SWIDTH 388 0
DWIDTH 7 0
BBX 5 10 1 0
BITMAP
70
88
80
80
40
20
10
08
88
70
ENDCHAR

STARTCHAR t
ENCODING 116
SWIDTH 339 0
DWIDTH 5 0
BBX 5 14 0 0
BITMAP
20
20
20
20
F8
20
20
20
20
20
20
20
20
20
ENDCHAR

STARTCHAR u
ENCODING 117
SWIDTH 608 0
DWIDTH 12 0
BBX 8 10 2 0
BITMAP
81
81
81
81
81
81
81
81
42
3C
ENDCHAR

STARTCHAR v
ENCODING 118
SWIDTH 554 0
DWIDTH 9 0
BBX 9 10 0 0
BITMAP
8080
8080
4100
4100
2200
2200
1400
1400
0800
0800
ENDCHAR

STARTCHAR w
ENCODING 119
SWIDTH 831 0
DWIDTH 15 0
BBX 15 10 0 0
BITMAP
8102
8102
4104
4284
2288
2448
1450
1450
0820
0820
ENDCHAR

STARTCHAR x
ENCODING 120
SWIDTH 480 0
DWIDTH 10 0
BBX 8 10 1 0
BITMAP
81
81
42
24
18
18
24
42
81
81
ENDCHAR

STARTCHAR y
ENCODING 121
SWIDTH 536 0
DWIDTH 9 0
BBX 9 14 0 -4
BITMAP
8080
8080
4100
4100
2200
2200
1400
1400
0800
0800
1000
1000
2000
2000
ENDCHAR

STARTCHAR z
ENCODING 122
SWIDTH 425 0
DWIDTH 9 0
BBX 7 10 1 0
BITMAP
FE
04
08
08
10
20
20
40
80
FE
ENDCHAR

STARTCHAR braceleft
ENCODING 123
SWIDTH 351 0
DWIDTH 7 0
BBX 6 17 1 -3
BITMAP
1C
30
20
20
20
20
20
60
C0
60
20
20
20
20
20
30
1C
ENDCHAR

STARTCHAR bar
ENCODING 124
SWIDTH 672 0
DWIDTH 13 0
BBX 1 18 6 -4
BITMAP
80
80
80
80
80
80
80
80
80
80
80
80
80
80
80
80
80
80
ENDCHAR

STARTCHAR braceright
ENCODING 125
SWIDTH 351 0
DWIDTH 7 0
BBX 6 17 1 -3
BITMAP
E0
30
10
10
10
10
10
18
0C
18
10
10
10
10
10
30
E0
ENDCHAR

STARTCHAR asciitilde
ENCODING 126
SWIDTH 606 0
DWIDTH 12 0
BBX 10 3 1 5
BITMAP
7040
DCC0
8780
ENDCHAR

STARTCHAR space
ENCODING 160
SWIDTH 277 0
DWIDTH 6 0
BBX 0 0 0 0
BITMAP
ENDCHAR

STARTCHAR exclamdown
ENCODING 161
SWIDTH 295 0
DWIDTH 6 0
BBX 1 14 3 -4
BITMAP
80
80
00
80
80
80
80
80
80
80
80
80
80
80
ENDCHAR

STARTCHAR cent
ENCODING 162
SWIDTH 554 0
DWIDTH 11 0
BBX 10 14 1 -2
BITMAP
00C0
0080
1F00
6180
4280
8400
8400
8800
8800
5080
6180
3E00
4000
C000
ENDCHAR

STARTCHAR sterling
ENCODING 163
SWIDTH 554 0
DWIDTH 11 0
BBX 9 14 1 0
BITMAP
1E00
3300
2100
2000
2000
2000
FE00
1000
1000
1000
7080
B080
DD80
6700
ENDCHAR

STARTCHAR currency
ENCODING 164
SWIDTH 554 0
DWIDTH 11 0
BBX 9 9 1 2
BITMAP
9C80
6300
4100
8080
8080
8080
4100
6300
9C80
ENDCHAR

STARTCHAR yen
ENCODING 165
SWIDTH 554 0
DWIDTH 11 0
BBX 9 14 1 0
BITMAP
8080
8080
4100
4100
2200
2200
1400
FF80
0800
FF80
0800
0800
0800
0800
ENDCHAR

STARTCHAR brokenbar
ENCODING 166
SWIDTH 672 0
DWIDTH 13 0
BBX 1 18 6 -4
BITMAP
80
80
80
80
80
80
00
00
00
00
00
00
80
80
80
80
80
80
ENDCHAR

STARTCHAR section
ENCODING 167
SWIDTH 615 0
DWIDTH 12 0
BBX 8 18 2 -4
BITMAP
1C
22
41
40
60
30
4C
82
81
81
41
32
0C
06
02
82
44
38
ENDCHAR

STARTCHAR dieresis
ENCODING 168
SWIDTH 369 0
DWIDTH 7 0
BBX 6 2 1 12
BITMAP
CC
CC
ENDCHAR

STARTCHAR copyright
ENCODING 169
SWIDTH 747 0
DWIDTH 14 0
BBX 14 14 0 0
BITMAP
0FC0
3870
6018
4788
C8CC
9044
9004
9004
9044
C8CC
4788
6018
3870
0FC0
ENDCHAR

STARTCHAR ordfeminine
ENCODING 170
SWIDTH 369 0
DWIDTH 7 0
BBX 6 7 1 7
BITMAP
74
CC
84
84
84
CC
74
ENDCHAR

STARTCHAR guillemotleft
ENCODING 171
SWIDTH 425 0
DWIDTH 8 0
BBX 8 10 0 0
BITMAP
33
22
44
44
88
88
44
44
22
33
ENDCHAR

STARTCHAR logicalnot
ENCODING 172
SWIDTH 606 0
DWIDTH 12 0
BBX 9 5 1 4
BITMAP
FF80
0080
0080
0080
0080
ENDCHAR

STARTCHAR hyphen
ENCODING 173
SWIDTH 332 0
DWIDTH 6 0
BBX 5 1 1 5
BITMAP
F8
ENDCHAR

STARTCHAR registered
ENCODING 174
SWIDTH 747 0
DWIDTH 14 0
BBX 14 14 0 0
BITMAP
0FC0
3870
6018
4F88
C8CC
8844
8844
8F84
8844
C84C
4828
6018
3870
0FC0
ENDCHAR

STARTCHAR macron
ENCODING 175
SWIDTH 485 0
DWIDTH 9 0
BBX 7 1 1 13
BITMAP
FE
ENDCHAR

STARTCHAR degree
ENCODING 176
SWIDTH 400 0
DWIDTH 8 0
BBX 6 6 1 8
BITMAP
38
4C
84
84
C8
70
ENDCHAR

STARTCHAR plusminus
ENCODING 177
SWIDTH 606 0
DWIDTH 12 0
BBX 9 12 1 0
BITMAP
0800
0800
0800
0800
FF80
0800
0800
0800
0800
0000
0000
FF80
ENDCHAR

STARTCHAR twosuperior
ENCODING 178
SWIDTH 332 0
DWIDTH 6 0
BBX 5 7 1 7
BITMAP
70
88
08
10
20
40
F8
ENDCHAR

STARTCHAR threesuperior
ENCODING 179
SWIDTH 332 0
DWIDTH 6 0
BBX 5 7 1 7
BITMAP
70
88
08
30
08
88
70
ENDCHAR

STARTCHAR acute
ENCODING 180
SWIDTH 375 0
DWIDTH 7 0
BBX 3 3 3 12
BITMAP
60
C0
80
ENDCHAR

STARTCHAR mu
ENCODING 181
SWIDTH 608 0
DWIDTH 12 0
BBX 8 14 2 -4
BITMAP
81
81
81
81
81
81
81
81
C3
BD
80
80
80
80
ENDCHAR

STARTCHAR paragraph
ENCODING 182
SWIDTH 564 0
DWIDTH 11 0
BBX 9 16 1 -2
BITMAP
3F80
7900
F900
F900
F900
F900
7900
1900
0900
0900
0900
0900
0900
0900
0900
0900
ENDCHAR

STARTCHAR periodcentered
ENCODING 183
SWIDTH 277 0
DWIDTH 5 0
BBX 2 2 2 6
BITMAP
C0
C0
ENDCHAR

STARTCHAR cedilla
ENCODING 184
SWIDTH 324 0
DWIDTH 6 0
BBX 3 4 2 -4
BITMAP
40
40
20
C0
ENDCHAR

STARTCHAR onesuperior
ENCODING 185
SWIDTH 332 0
DWIDTH 6 0
BBX 2 7 2 7
BITMAP
C0
40
40
40
40
40
40
ENDCHAR

STARTCHAR ordmasculine
ENCODING 186
SWIDTH 369 0
DWIDTH 7 0
BBX 6 7 1 7
BITMAP
78
CC
84
84
84
CC
78
ENDCHAR

STARTCHAR guillemotright
ENCODING 187
SWIDTH 425 0
DWIDTH 8 0
BBX 8 10 0 0
BITMAP
CC
44
22
22
11
11
22
22
44
CC
ENDCHAR

STARTCHAR onequarter
ENCODING 188
SWIDTH 831 0
DWIDTH 16 0
BBX 14 14 1 0
BITMAP
C020
4040
4080
4080
4100
4100
4208
0408
0418
0828
1048
10FC
2008
4008
ENDCHAR

STARTCHAR onehalf
ENCODING 189
SWIDTH 831 0
DWIDTH 16 0
BBX 14 14 1 0
BITMAP
C020
4040
4080
4080
4100
4100
4200
0438
0444
0804
1008
1010
2020
407C
ENDCHAR

STARTCHAR threequarters
ENCODING 190
SWIDTH 831 0
DWIDTH 16 0
BBX 14 14 1 0
BITMAP
7010
8820
0840
3040
0880
8880
7108
0208
0218
0428
0848
08FC
1008
2008
ENDCHAR

STARTCHAR questiondown
ENCODING 191
SWIDTH 591 0
DWIDTH 11 0
BBX 8 14 2 -4
BITMAP
08
08
00
3C
46
82
02
0C
30
40
81
81
42
3C
ENDCHAR

STARTCHAR Agrave
ENCODING 192
SWIDTH 740 0
DWIDTH 14 0
BBX 12 18 1 0
BITMAP
0C00
0400
0200
0000
0600
0600
0900
0900
1080
1080
2040
2040
3FC0
4020
4020
4020
8010
8010
ENDCHAR

STARTCHAR Aacute
ENCODING 193
SWIDTH 740 0
DWIDTH 14 0
BBX 12 18 1 0
BITMAP
0300
0200
0400
0000
0600
0600
0900
0900
1080
1080
2040
2040
3FC0
4020
4020
4020
8010
8010
ENDCHAR

STARTCHAR Acircumflex
ENCODING 194
SWIDTH 740 0
DWIDTH 14 0
BBX 12 18 1 0
BITMAP
0200
0500
0880
0000
0600
0600
0900
0900
1080
1080
2040
2040
3FC0
4020
4020
4020
8010
8010
ENDCHAR

STARTCHAR Atilde
ENCODING 195
SWIDTH 740 0
DWIDTH 14 0
BBX 12 17 1 0
BITMAP
0E40
1380
0000
0600
0600
0900
0900
1080
1080
2040
2040
3FC0
4020
4020
4020
8010
8010
ENDCHAR

STARTCHAR Adieresis
ENCODING 196
SWIDTH 740 0
DWIDTH 14 0
BBX 12 17 1 0
BITMAP
1980
1980
0000
0600
0600
0900
0900
1080
1080
2040
2040
3FC0
4020
4020
4020
8010
8010
ENDCHAR

STARTCHAR Aring
ENCODING 197
SWIDTH 740 0
DWIDTH 14 0
BBX 12 17 1 0
BITMAP
0600
0900
0900
0600
0600
0900
0900
1080
1080
2040
2040
3FC0
4020
4020
4020
8010
8010
ENDCHAR

STARTCHAR AE
ENCODING 198
SWIDTH 992 0
DWIDTH 19 0
BBX 17 14 1 0
BITMAP
00FF80
014000
024000
024000
044000
044000
087F80
084000
1FC000
204000
404000
404000
804000
807F80
ENDCHAR

STARTCHAR Ccedilla
ENCODING 199
SWIDTH 813 0
DWIDTH 15 0
BBX 12 18 2 -4
BITMAP
0F80
3060
4030
4000
8000
8000
8000
8000
8000
8000
4000
4030
3060
0F80
0200
0100
0080
0700
ENDCHAR

STARTCHAR Egrave
ENCODING 200
SWIDTH 536 0
DWIDTH 10 0
BBX 7 18 2 0
BITMAP
30
10
08
00
FE
80
80
80
80
80
FE
80
80
80
80
80
80
FE
ENDCHAR

STARTCHAR Eacute
ENCODING 201
SWIDTH 536 0
DWIDTH 10 0
BBX 7 18 2 0
BITMAP
0C
08
10
00
FE
80
80
80
80
80
FE
80
80
80
80
80
80
FE
ENDCHAR

STARTCHAR Ecircumflex
ENCODING 202
SWIDTH 536 0
DWIDTH 10 0
BBX 7 18 2 0
BITMAP
10
28
44
00
FE
80
80
80
80
80
FE
80
80
80
80
80
80
FE
ENDCHAR

STARTCHAR Edieresis
ENCODING 203
SWIDTH 536 0
DWIDTH 10 0
BBX 7 17 2 0
BITMAP
66
66
00
FE
80
80
80
80
80
FE
80
80
80
80
80
80
FE
ENDCHAR

STARTCHAR Igrave
ENCODING 204
SWIDTH 226 0
DWIDTH 5 0
BBX 3 18 0 0
BITMAP
C0
40
20
00
20
20
20
20
20
20
20
20
20
20
20
20
20
20
ENDCHAR

STARTCHAR Iacute
ENCODING 205
SWIDTH 226 0
DWIDTH 5 0
BBX 3 18 2 0
BITMAP
60
40
80
00
80
80
80
80
80
80
80
80
80
80
80
80
80
80
ENDCHAR

STARTCHAR Icircumflex
ENCODING 206
SWIDTH 226 0
DWIDTH 5 0
BBX 5 18 0 0
BITMAP
20
50
88
00
20
20
20
20
20
20
20
20
20
20
20
20
20
20
ENDCHAR

STARTCHAR Idieresis
ENCODING 207
SWIDTH 226 0
DWIDTH 5 0
BBX 5 17 0 0
BITMAP
D8
D8
00
20
20
20
20
20
20
20
20
20
20
20
20
20
20
ENDCHAR

STARTCHAR Gbreve
ENCODING 208
SWIDTH 872 0
DWIDTH 17 0
BBX 14 17 2 0
BITMAP
18C0
0F80
0000
0FC0
3030
4018
4000
8000
8000
8000
807C
8004
8004
4008
4008
3030
0FC0
ENDCHAR

STARTCHAR Ntilde
ENCODING 209
SWIDTH 740 0
DWIDTH 14 0
BBX 10 17 2 0
BITMAP
1C80
2700
0000
8040
C040
E040
A040
9040
9040
8840
8440
8440
8240
8140
81C0
80C0
8040
ENDCHAR

STARTCHAR Ograve
ENCODING 210
SWIDTH 869 0
DWIDTH 17 0
BBX 14 18 2 0
BITMAP
0600
0200
0100
0000
0FC0
3030
4008
4008
8004
8004
8004
8004
8004
8004
4008
4008
3030
0FC0
ENDCHAR

STARTCHAR Oacute
ENCODING 211
SWIDTH 869 0
DWIDTH 17 0
BBX 14 18 2 0
BITMAP
0180
0100
0200
0000
0FC0
3030
4008
4008
8004
8004
8004
8004
8004
8004
4008
4008
3030
0FC0
ENDCHAR

STARTCHAR Ocircumflex
ENCODING 212
SWIDTH 869 0
DWIDTH 17 0
BBX 14 18 2 0
BITMAP
0100
0280
0440
0000
0FC0
3030
4008
4008
8004
8004
8004
8004
8004
8004
4008
4008
3030
0FC0
ENDCHAR

STARTCHAR Otilde
ENCODING 213
SWIDTH 869 0
DWIDTH 17 0
BBX 14 17 2 0
BITMAP
0720
09C0
0000
0FC0
3030
4008
4008
8004
8004
8004
8004
8004
8004
4008
4008
3030
0FC0
ENDCHAR

STARTCHAR Odieresis
ENCODING 214
SWIDTH 869 0
DWIDTH 17 0
BBX 14 17 2 0
BITMAP
0CC0
0CC0
0000
0FC0
3030
4008
4008
8004
8004
8004
8004
8004
8004
4008
4008
3030
0FC0
ENDCHAR

STARTCHAR multiply
ENCODING 215
SWIDTH 606 0
DWIDTH 12 0
BBX 8 8 2 3
BITMAP
81
42
24
18
18
24
42
81
ENDCHAR

STARTCHAR Oslash
ENCODING 216
SWIDTH 868 0
DWIDTH 17 0
BBX 14 14 2 0
BITMAP
0FC4
3038
4018
4028
8044
8084
8104
8104
8204
8404
4808
5008
3030
4FC0
ENDCHAR

STARTCHAR Ugrave
ENCODING 217
SWIDTH 655 0
DWIDTH 13 0
BBX 9 18 2 0
BITMAP
3000
1000
0800
0000
8080
8080
8080
8080
8080
8080
8080
8080
8080
8080
8080
4100
6300
1C00
ENDCHAR

STARTCHAR Uacute
ENCODING 218
SWIDTH 655 0
DWIDTH 13 0
BBX 9 18 2 0
BITMAP
0600
0400
0800
0000
8080
8080
8080
8080
8080
8080
8080
8080
8080
8080
8080
4100
6300
1C00
ENDCHAR

STARTCHAR Ucircumflex
ENCODING 219
SWIDTH 655 0
DWIDTH 13 0
BBX 9 18 2 0
BITMAP
0800
1400
2200
0000
8080
8080
8080
8080
8080
8080
8080
8080
8080
8080
8080
4100
6300
1C00
ENDCHAR

STARTCHAR Udieresis
ENCODING 220
SWIDTH 655 0
DWIDTH 13 0
BBX 9 17 2 0
BITMAP
6300
6300
0000
8080
8080
8080
8080
8080
8080
8080
8080
8080
8080
8080
4100
6300
1C00
ENDCHAR

STARTCHAR Idotaccent
ENCODING 221
SWIDTH 226 0
DWIDTH 5 0
BBX 2 17 2 0
BITMAP
C0
C0
00
80
80
80
80
80
80
80
80
80
80
80
80
80
80
ENDCHAR

STARTCHAR Scedilla
ENCODING 222
SWIDTH 498 0
DWIDTH 9 0
BBX 7 18 1 -4
BITMAP
38
44
82
80
80
60
18
04
02
02
02
82
44
38
10
08
08
30
ENDCHAR

STARTCHAR germandbls
ENCODING 223
SWIDTH 554 0
DWIDTH 11 0
BBX 8 14 2 0
BITMAP
38
44
82
82
82
84
98
84
82
81
81
81
A2
9C
ENDCHAR

STARTCHAR agrave
ENCODING 224
SWIDTH 683 0
DWIDTH 13 0
BBX 10 14 1 0
BITMAP
1800
0800
0400
0000
1E40
6140
40C0
8040
8040
8040
8040
40C0
6140
1E40
ENDCHAR

STARTCHAR aacute
ENCODING 225
SWIDTH 683 0
DWIDTH 13 0
BBX 10 14 1 0
BITMAP
0600
0400
0800
0000
1E40
6140
40C0
8040
8040
8040
8040
40C0
6140
1E40
ENDCHAR

STARTCHAR acircumflex
ENCODING 226
SWIDTH 683 0
DWIDTH 13 0
BBX 10 14 1 0
BITMAP
0400
0A00
1100
0000
1E40
6140
40C0
8040
8040
8040
8040
40C0
6140
1E40
ENDCHAR

STARTCHAR atilde
ENCODING 227
SWIDTH 683 0
DWIDTH 13 0
BBX 10 14 1 0
BITMAP
1C80
2700
0000
0000
1E40
6140
40C0
8040
8040
8040
8040
40C0
6140
1E40
ENDCHAR

STARTCHAR adieresis
ENCODING 228
SWIDTH 683 0
DWIDTH 13 0
BBX 10 13 1 0
BITMAP
3300
3300
0000
1E40
6140
40C0
8040
8040
8040
8040
40C0
6140
1E40
ENDCHAR

STARTCHAR aring
ENCODING 229
SWIDTH 683 0
DWIDTH 13 0
BBX 10 15 1 0
BITMAP
0C00
1200
1200
0C00
0000
1E40
6140
40C0
8040
8040
8040
8040
40C0
6140
1E40
ENDCHAR

STARTCHAR ae
ENCODING 230
SWIDTH 1157 0
DWIDTH 22 0
BBX 19 10 1 0
BITMAP
1E4F00
6150C0
40E040
804020
807FE0
804000
804000
40E020
615060
1E4F80
ENDCHAR

STARTCHAR ccedilla
ENCODING 231
SWIDTH 647 0
DWIDTH 12 0
BBX 10 14 1 -4
BITMAP
1F00
60C0
4040
8000
8000
8000
8000
4040
60C0
1F00
0400
0400
0200
0C00
ENDCHAR

STARTCHAR egrave
ENCODING 232
SWIDTH 650 0
DWIDTH 12 0
BBX 10 14 1 0
BITMAP
1800
0800
0400
0000
1E00
6180
4080
8040
FFC0
8000
8000
4040
60C0
1F00
ENDCHAR

STARTCHAR eacute
ENCODING 233
SWIDTH 650 0
DWIDTH 12 0
BBX 10 14 1 0
BITMAP
0600
0400
0800
0000
1E00
6180
4080
8040
FFC0
8000
8000
4040
60C0
1F00
ENDCHAR

STARTCHAR ecircumflex
ENCODING 234
SWIDTH 650 0
DWIDTH 12 0
BBX 10 14 1 0
BITMAP
0400
0A00
1100
0000
1E00
6180
4080
8040
FFC0
8000
8000
4040
60C0
1F00
ENDCHAR

STARTCHAR edieresis
ENCODING 235
SWIDTH 650 0
DWIDTH 12 0
BBX 10 14 1 0
BITMAP
3300
3300
0000
0000
1E00
6180
4080
8040
FFC0
8000
8000
4040
60C0
1F00
ENDCHAR

STARTCHAR igrave
ENCODING 236
SWIDTH 200 0
DWIDTH 5 0
BBX 3 14 1 0
BITMAP
C0
40
20
00
40
40
40
40
40
40
40
40
40
40
ENDCHAR

STARTCHAR iacute
ENCODING 237
SWIDTH 200 0
DWIDTH 5 0
BBX 3 14 1 0
BITMAP
60
40
80
00
40
40
40
40
40
40
40
40
40
40
ENDCHAR

STARTCHAR icircumflex
ENCODING 238
SWIDTH 200 0
DWIDTH 5 0
BBX 5 15 0 0
BITMAP
20
50
88
00
00
20
20
20
20
20
20
20
20
20
20
ENDCHAR

STARTCHAR idieresis
ENCODING 239
SWIDTH 200 0
DWIDTH 5 0
BBX 6 14 -1 0
BITMAP
CC
CC
00
00
10
10
10
10
10
10
10
10
10
10
ENDCHAR

STARTCHAR gbreve
ENCODING 240
SWIDTH 673 0
DWIDTH 13 0
BBX 10 18 1 -4
BITMAP
3180
1F00
0000
0000
1E40
6140
40C0
8040
8040
8040
8040
40C0
6140
1E40
0040
4080
6180
1E00
ENDCHAR

STARTCHAR ntilde
ENCODING 241
SWIDTH 610 0
DWIDTH 12 0
BBX 8 13 2 0
BITMAP
39
4E
00
9C
A2
C1
81
81
81
81
81
81
81
ENDCHAR

STARTCHAR ograve
ENCODING 242
SWIDTH 655 0
DWIDTH 12 0
BBX 10 14 1 0
BITMAP
1800
0800
0400
0000
1E00
6180
4080
8040
8040
8040
8040
4080
6180
1E00
ENDCHAR

STARTCHAR oacute
ENCODING 243
SWIDTH 655 0
DWIDTH 12 0
BBX 10 14 1 0
BITMAP
0300
0200
0400
0000
1E00
6180
4080
8040
8040
8040
8040
4080
6180
1E00
ENDCHAR

STARTCHAR ocircumflex
ENCODING 244
SWIDTH 655 0
DWIDTH 12 0
BBX 10 14 1 0
BITMAP
0400
0A00
1100
0000
1E00
6180
4080
8040
8040
8040
8040
4080
6180
1E00
ENDCHAR

STARTCHAR otilde
ENCODING 245
SWIDTH 655 0
DWIDTH 12 0
BBX 10 14 1 0
BITMAP
1C80
2700
0000
0000
1E00
6180
4080
8040
8040
8040
8040
4080
6180
1E00
ENDCHAR

STARTCHAR odieresis
ENCODING 246
SWIDTH 655 0
DWIDTH 12 0
BBX 10 14 1 0
BITMAP
3300
3300
0000
0000
1E00
6180
4080
8040
8040
8040
8040
4080
6180
1E00
ENDCHAR

STARTCHAR divide
ENCODING 247
SWIDTH 606 0
DWIDTH 12 0
BBX 10 9 1 2
BITMAP
0C00
0C00
0000
0000
FFC0
0000
0000
0C00
0C00
ENDCHAR

STARTCHAR oslash
ENCODING 248
SWIDTH 653 0
DWIDTH 12 0
BBX 10 10 1 0
BITMAP
1EC0
6180
41C0
8240
8440
8840
9040
6080
6180
DE00
ENDCHAR

STARTCHAR ugrave
ENCODING 249
SWIDTH 608 0
DWIDTH 12 0
BBX 8 14 2 0
BITMAP
30
10
08
00
81
81
81
81
81
81
81
81
42
3C
ENDCHAR

STARTCHAR uacute
ENCODING 250
SWIDTH 608 0
DWIDTH 12 0
BBX 8 14 2 0
BITMAP
0C
08
10
00
81
81
81
81
81
81
81
81
42
3C
ENDCHAR

STARTCHAR ucircumflex
ENCODING 251
SWIDTH 608 0
DWIDTH 12 0
BBX 8 15 2 0
BITMAP
10
28
44
00
00
81
81
81
81
81
81
81
81
42
3C
ENDCHAR

STARTCHAR udieresis
ENCODING 252
SWIDTH 608 0
DWIDTH 12 0
BBX 8 14 2 0
BITMAP
66
66
00
00
81
81
81
81
81
81
81
81
42
3C
ENDCHAR

STARTCHAR dotlessi
ENCODING 253
SWIDTH 200 0
DWIDTH 5 0
BBX 1 10 2 0
BITMAP
80
80
80
80
80
80
80
80
80
80
ENDCHAR

STARTCHAR scedilla
ENCODING 254
SWIDTH 388 0
DWIDTH 7 0
BBX 5 14 1 -4
BITMAP
70
88
80
80
40
20
10
08
88
70
20
10
10
60
ENDCHAR

STARTCHAR ydieresis
ENCODING 255
SWIDTH 536 0
DWIDTH 9 0
BBX 9 18 0 -4
BITMAP
6600
6600
0000
0000
8080
8080
4100
4100
2200
2200
1400
1400
0800
0800
1000
1000
2000
2000
ENDCHAR
ENDFONT
